<svg xmlns="http://www.w3.org/2000/svg" viewBox="0 0 940 380" font-family="system-ui,sans-serif">
<text x="66" y="24" font-size="14" font-weight="600" fill="#131A1B">E1b — mold-vs-gold probe by readout site</text>
<text x="66" y="42" font-size="11" fill="#7A8B8E">Ridge chosen by inner CV. Line = mean over 5 seeds, band = min–max.</text>
<rect x="66" y="94.7" width="724" height="211.3" fill="#47575A" opacity=".07"/><line x1="66" y1="94.7" x2="790" y2="94.7" stroke="#47575A" stroke-dasharray="5 3" stroke-width="1.5"/><text x="798" y="98.7" font-size="10.5" fill="#47575A">surface baseline 0.924</text><text x="798" y="112.7" font-size="9.5" fill="#7A8B8E">bag of token ids</text>
<line x1="66" y1="265.7" x2="790" y2="265.7" stroke="#9E3535" stroke-dasharray="3 3"/><text x="798" y="269.7" font-size="10" fill="#9E3535">chance</text>
<line x1="66" y1="56" x2="66" y2="306" stroke="#47575A"/><line x1="66" y1="306" x2="790" y2="306" stroke="#47575A"/>
<text x="58" y="268.7" text-anchor="end" font-family="ui-monospace,monospace" font-size="9" fill="#7A8B8E">0.50</text>
<text x="58" y="188.0" text-anchor="end" font-family="ui-monospace,monospace" font-size="9" fill="#7A8B8E">0.70</text>
<text x="58" y="107.4" text-anchor="end" font-family="ui-monospace,monospace" font-size="9" fill="#7A8B8E">0.90</text>
<text x="58" y="67.1" text-anchor="end" font-family="ui-monospace,monospace" font-size="9" fill="#7A8B8E">1.00</text>
<polygon points="66.0,71.0 86.1,71.0 106.2,71.0 126.3,71.0 146.4,71.0 166.6,71.0 186.7,71.0 206.8,71.0 226.9,71.0 247.0,71.0 267.1,78.0 287.2,78.0 307.3,78.0 327.4,78.0 347.6,78.0 367.7,84.9 387.8,98.8 407.9,105.8 428.0,112.7 448.1,105.8 468.2,91.9 488.3,78.0 508.4,78.0 528.6,78.0 548.7,84.9 568.8,71.0 588.9,71.0 609.0,71.0 629.1,64.1 649.2,64.1 669.3,64.1 689.4,64.1 709.6,64.1 729.7,64.1 749.8,64.1 769.9,71.0 790.0,98.8 790.0,140.5 769.9,78.0 749.8,78.0 729.7,78.0 709.6,71.0 689.4,78.0 669.3,78.0 649.2,91.9 629.1,91.9 609.0,98.8 588.9,98.8 568.8,98.8 548.7,105.8 528.6,105.8 508.4,119.7 488.3,126.6 468.2,126.6 448.1,147.5 428.0,147.5 407.9,133.6 387.8,119.7 367.7,112.7 347.6,105.8 327.4,105.8 307.3,98.8 287.2,91.9 267.1,98.8 247.0,98.8 226.9,91.9 206.8,91.9 186.7,91.9 166.6,98.8 146.4,98.8 126.3,98.8 106.2,98.8 86.1,98.8 66.0,98.8" fill="#0E7C74" opacity=".15"/>
<polyline points="66.0,84.9 86.1,87.7 106.2,87.7 126.3,86.3 146.4,86.3 166.6,84.9 186.7,83.5 206.8,79.4 226.9,80.7 247.0,82.1 267.1,83.5 287.2,80.7 307.3,83.5 327.4,89.1 347.6,93.3 367.7,98.8 387.8,109.9 407.9,121.1 428.0,126.6 448.1,123.9 468.2,111.3 488.3,105.8 508.4,97.4 528.6,91.9 548.7,90.5 568.8,80.7 588.9,80.7 609.0,79.4 629.1,75.2 649.2,75.2 669.3,71.0 689.4,71.0 709.6,69.6 729.7,71.0 749.8,71.0 769.9,73.8 790.0,130.8" fill="none" stroke="#0E7C74" stroke-width="2.2"/>
<text x="798" y="134.8" font-size="10.5" fill="#0E7C74">mean over grid tokens</text>
<polygon points="66.0,71.0 86.1,78.0 106.2,78.0 126.3,71.0 146.4,71.0 166.6,71.0 186.7,64.1 206.8,78.0 226.9,78.0 247.0,78.0 267.1,64.1 287.2,64.1 307.3,78.0 327.4,78.0 347.6,98.8 367.7,98.8 387.8,112.7 407.9,112.7 428.0,133.6 448.1,140.5 468.2,133.6 488.3,112.7 508.4,91.9 528.6,98.8 548.7,91.9 568.8,71.0 588.9,71.0 609.0,71.0 629.1,71.0 649.2,71.0 669.3,78.0 689.4,78.0 709.6,71.0 729.7,78.0 749.8,78.0 769.9,71.0 790.0,126.6 790.0,182.3 769.9,91.9 749.8,91.9 729.7,98.8 709.6,91.9 689.4,98.8 669.3,91.9 649.2,98.8 629.1,105.8 609.0,112.7 588.9,112.7 568.8,119.7 548.7,154.4 528.6,154.4 508.4,154.4 488.3,168.3 468.2,175.3 448.1,189.2 428.0,182.3 407.9,175.3 387.8,182.3 367.7,168.3 347.6,189.2 327.4,154.4 307.3,133.6 287.2,133.6 267.1,126.6 247.0,119.7 226.9,112.7 206.8,105.8 186.7,105.8 166.6,98.8 146.4,98.8 126.3,98.8 106.2,98.8 86.1,98.8 66.0,98.8" fill="#A96410" opacity=".15"/>
<polyline points="66.0,89.1 86.1,89.1 106.2,90.5 126.3,89.1 146.4,90.5 166.6,86.3 186.7,87.7 206.8,87.7 226.9,97.4 247.0,98.8 267.1,98.8 287.2,101.6 307.3,107.2 327.4,108.6 347.6,126.6 367.7,132.2 387.8,137.8 407.9,148.9 428.0,164.2 448.1,162.8 468.2,150.3 488.3,147.5 508.4,130.8 528.6,128.0 548.7,121.1 568.8,97.4 588.9,94.7 609.0,93.3 629.1,90.5 649.2,84.9 669.3,86.3 689.4,87.7 709.6,83.5 729.7,87.7 749.8,83.5 769.9,80.7 790.0,167.0" fill="none" stroke="#A96410" stroke-width="2.2"/>
<text x="798" y="171.0" font-size="10.5" fill="#A96410">mean over all tokens</text>
<polygon points="66.0,467.3 86.1,126.6 106.2,161.4 126.3,161.4 146.4,217.0 166.6,230.9 186.7,237.9 206.8,237.9 226.9,237.9 247.0,224.0 267.1,230.9 287.2,258.7 307.3,272.6 327.4,258.7 347.6,230.9 367.7,258.7 387.8,224.0 407.9,230.9 428.0,230.9 448.1,244.8 468.2,244.8 488.3,224.0 508.4,210.1 528.6,182.3 548.7,154.4 568.8,182.3 588.9,154.4 609.0,175.3 629.1,147.5 649.2,154.4 669.3,168.3 689.4,161.4 709.6,161.4 729.7,168.3 749.8,161.4 769.9,175.3 790.0,182.3 790.0,251.8 769.9,210.1 749.8,217.0 729.7,265.7 709.6,258.7 689.4,258.7 669.3,237.9 649.2,244.8 629.1,237.9 609.0,244.8 588.9,230.9 568.8,230.9 548.7,272.6 528.6,300.4 508.4,279.6 488.3,300.4 468.2,286.5 448.1,286.5 428.0,300.4 407.9,300.4 387.8,286.5 367.7,293.5 347.6,286.5 327.4,293.5 307.3,300.4 287.2,314.3 267.1,307.4 247.0,321.3 226.9,307.4 206.8,321.3 186.7,321.3 166.6,300.4 146.4,279.6 126.3,217.0 106.2,230.9 86.1,210.1 66.0,467.3" fill="#9E3535" opacity=".15"/>
<polyline points="66.0,467.3 86.1,164.2 106.2,187.8 126.3,193.4 146.4,250.4 166.6,269.8 186.7,279.6 206.8,282.4 226.9,274.0 247.0,278.2 267.1,274.0 287.2,281.0 307.3,286.5 327.4,279.6 347.6,268.5 367.7,268.5 387.8,258.7 407.9,267.1 428.0,271.2 448.1,268.5 468.2,268.5 488.3,265.7 508.4,239.3 528.6,230.9 548.7,215.6 568.8,203.1 588.9,200.3 609.0,203.1 629.1,210.1 649.2,201.7 669.3,203.1 689.4,218.4 709.6,212.8 729.7,217.0 749.8,200.3 769.9,197.5 790.0,228.1" fill="none" stroke="#9E3535" stroke-width="2.2"/>
<text x="798" y="232.1" font-size="10.5" fill="#9E3535">last token (E1a)</text>
<text x="428.0" y="340" text-anchor="middle" font-family="ui-monospace,monospace" font-size="10" fill="#7A8B8E" letter-spacing=".1em">LAYER  0 → 36</text>
<text x="66" y="370" font-size="10" fill="#7A8B8E">run 20260730T150227Z_3640b9a024c2 · git 05b3136 · a probe below the surface baseline is a worse copy of the input, not a representation</text>
</svg>