<svg xmlns="http://www.w3.org/2000/svg" viewBox="0 0 720 360" font-family="system-ui,sans-serif">
<text x="40" y="24" font-size="14" font-weight="600" fill="#131A1B">E5 — E4's separability rise was composition drift, not representation change</text>
<text x="40" y="42" font-size="11" fill="#7A8B8E">Same weights read on different trajectory sets (composition) vs different weights read on the same set (representation).</text>

<line x1="90" y1="70" x2="690" y2="70" stroke="#E3E7E7"/>
<line x1="90" y1="139.2" x2="690" y2="139.2" stroke="#E3E7E7"/>
<line x1="90" y1="208.5" x2="690" y2="208.5" stroke="#47575A"/>
<line x1="90" y1="70" x2="90" y2="250" stroke="#47575A"/>

<text x="82" y="74" text-anchor="end" font-family="ui-monospace,monospace" font-size="9" fill="#7A8B8E">+0.10</text>
<text x="82" y="143" text-anchor="end" font-family="ui-monospace,monospace" font-size="9" fill="#7A8B8E">+0.05</text>
<text x="82" y="212" text-anchor="end" font-family="ui-monospace,monospace" font-size="9" fill="#7A8B8E">0.00</text>

<rect x="111" y="197.4" width="26" height="11.1" rx="3" fill="#A96410"/>
<rect x="143" y="208.5" width="26" height="1.5" rx="0.7" fill="#0E7C74"/>
<text x="124" y="192.4" text-anchor="middle" font-family="ui-monospace,monospace" font-size="8.5" fill="#A96410">+.008</text>
<text x="156" y="224" text-anchor="middle" font-family="ui-monospace,monospace" font-size="8.5" fill="#0E7C74">−.000</text>
<text x="140" y="266" text-anchor="middle" font-size="10.5" fill="#7A8B8E">seed 0</text>

<rect x="211" y="90.8" width="26" height="117.7" rx="3" fill="#A96410"/>
<rect x="243" y="208.5" width="26" height="8.3" rx="3" fill="#0E7C74"/>
<text x="224" y="85.8" text-anchor="middle" font-family="ui-monospace,monospace" font-size="8.5" fill="#A96410">+.085</text>
<text x="256" y="228" text-anchor="middle" font-family="ui-monospace,monospace" font-size="8.5" fill="#0E7C74">−.006</text>
<text x="240" y="266" text-anchor="middle" font-size="10.5" fill="#7A8B8E">seed 1</text>

<rect x="311" y="208.5" width="26" height="15.2" rx="3" fill="#A96410"/>
<rect x="343" y="178.0" width="26" height="30.5" rx="3" fill="#0E7C74"/>
<text x="324" y="235" text-anchor="middle" font-family="ui-monospace,monospace" font-size="8.5" fill="#A96410">−.011</text>
<text x="356" y="173" text-anchor="middle" font-family="ui-monospace,monospace" font-size="8.5" fill="#0E7C74">+.022</text>
<text x="340" y="266" text-anchor="middle" font-size="10.5" font-weight="600" fill="#0E7C74">seed 2</text>
<text x="340" y="279" text-anchor="middle" font-size="9" fill="#0E7C74">the one learner</text>

<rect x="411" y="198.8" width="26" height="9.7" rx="3" fill="#A96410"/>
<rect x="443" y="208.5" width="26" height="23.5" rx="3" fill="#0E7C74"/>
<text x="424" y="193.8" text-anchor="middle" font-family="ui-monospace,monospace" font-size="8.5" fill="#A96410">+.007</text>
<text x="456" y="243" text-anchor="middle" font-family="ui-monospace,monospace" font-size="8.5" fill="#0E7C74">−.017</text>
<text x="440" y="266" text-anchor="middle" font-size="10.5" fill="#7A8B8E">seed 3</text>

<rect x="511" y="77.0" width="26" height="131.5" rx="3" fill="#A96410"/>
<rect x="543" y="194.7" width="26" height="13.8" rx="3" fill="#0E7C74"/>
<text x="524" y="72" text-anchor="middle" font-family="ui-monospace,monospace" font-size="8.5" fill="#A96410">+.095</text>
<text x="556" y="189.7" text-anchor="middle" font-family="ui-monospace,monospace" font-size="8.5" fill="#0E7C74">+.010</text>
<text x="540" y="266" text-anchor="middle" font-size="10.5" fill="#7A8B8E">seed 4</text>

<rect x="611" y="150.3" width="26" height="58.2" rx="3" fill="#A96410"/>
<rect x="643" y="208.5" width="26" height="18.0" rx="3" fill="#0E7C74"/>
<text x="624" y="145.3" text-anchor="middle" font-family="ui-monospace,monospace" font-size="8.5" fill="#A96410">+.042</text>
<text x="656" y="238" text-anchor="middle" font-family="ui-monospace,monospace" font-size="8.5" fill="#0E7C74">−.013</text>
<text x="640" y="266" text-anchor="middle" font-size="10.5" fill="#7A8B8E">seed 5</text>

<rect x="90" y="296" width="11" height="11" rx="3" fill="#A96410"/>
<text x="107" y="306" font-size="10.5" fill="#131A1B">composition — frozen base weights, trained policy's trajectories</text>
<text x="107" y="319" font-size="9.5" fill="#7A8B8E">mean +0.038 · 90% of E4's total</text>
<rect x="420" y="296" width="11" height="11" rx="3" fill="#0E7C74"/>
<text x="437" y="306" font-size="10.5" fill="#131A1B">representation — trained weights, base trajectories</text>
<text x="437" y="319" font-size="9.5" fill="#7A8B8E">mean −0.001 · indistinguishable from zero</text>

<text x="40" y="345" font-size="10" fill="#9E3535">E4 reported +0.080 and read it as a representation change. Its own baseline moved underneath it: the trained policy re-rolled the evaluation set.</text>
</svg>
