<svg xmlns="http://www.w3.org/2000/svg" viewBox="0 0 940 380" font-family="system-ui,sans-serif">
<text x="40" y="24" font-size="14" font-weight="600" fill="#131A1B">E15 — ORG-A&#8242; is a lottery: the E13/E14 gap is the SFT label draw, not nondeterminism</text>
<text x="40" y="42" font-size="11" fill="#7A8B8E">32 organisms · pooled mean 0.527 · sd 0.325 · each arm reproduces its historical run to 3 decimals</text>
<text x="40" y="66" font-family="ui-monospace,monospace" font-size="10.5" fill="#7A8B8E" letter-spacing=".1em">EVERY ORG-A&#8242; ORGANISM, RATIO = PENALISED / RANDOM</text>
<line x1="40" y1="78" x2="40" y2="318" stroke="#47575A"/>
<line x1="36" y1="318.0" x2="440" y2="318.0" stroke="#47575A" opacity=".18"/><text x="32" y="321.5" text-anchor="end" font-family="ui-monospace,monospace" font-size="9.5" fill="#7A8B8E">0.00</text>
<line x1="36" y1="271.8" x2="440" y2="271.8" stroke="#47575A" opacity=".18"/><text x="32" y="275.3" text-anchor="end" font-family="ui-monospace,monospace" font-size="9.5" fill="#7A8B8E">0.25</text>
<line x1="36" y1="225.7" x2="440" y2="225.7" stroke="#47575A" opacity=".18"/><text x="32" y="229.2" text-anchor="end" font-family="ui-monospace,monospace" font-size="9.5" fill="#7A8B8E">0.50</text>
<line x1="36" y1="179.5" x2="440" y2="179.5" stroke="#47575A" opacity=".18"/><text x="32" y="183.0" text-anchor="end" font-family="ui-monospace,monospace" font-size="9.5" fill="#7A8B8E">0.75</text>
<line x1="36" y1="133.4" x2="440" y2="133.4" stroke="#47575A" opacity=".18"/><text x="32" y="136.9" text-anchor="end" font-family="ui-monospace,monospace" font-size="9.5" fill="#7A8B8E">1.00</text>
<line x1="36" y1="87.2" x2="440" y2="87.2" stroke="#47575A" opacity=".18"/><text x="32" y="90.7" text-anchor="end" font-family="ui-monospace,monospace" font-size="9.5" fill="#7A8B8E">1.25</text>
<line x1="40" y1="179.5" x2="440" y2="179.5" stroke="#9E3535" stroke-width="1.4" stroke-dasharray="5 3"/><text x="440" y="173.5" text-anchor="end" font-size="10" fill="#9E3535">functional bar 0.75</text>
<line x1="63.5" y1="220.5" x2="63.5" y2="157.8" stroke="#47575A" opacity=".45"/>
<circle cx="63.5" cy="220.5" r="4" fill="#0E7C74"/>
<circle cx="63.5" cy="157.8" r="4" fill="#A96410"/>
<text x="63.5" y="332" text-anchor="middle" font-family="ui-monospace,monospace" font-size="9" fill="#7A8B8E">0</text>
<line x1="87.1" y1="254.7" x2="87.1" y2="156.2" stroke="#47575A" opacity=".45"/>
<circle cx="87.1" cy="254.7" r="4" fill="#0E7C74"/>
<circle cx="87.1" cy="156.2" r="4" fill="#A96410"/>
<text x="87.1" y="332" text-anchor="middle" font-family="ui-monospace,monospace" font-size="9" fill="#7A8B8E">1</text>
<line x1="110.6" y1="264.3" x2="110.6" y2="297.9" stroke="#47575A" opacity=".45"/>
<circle cx="110.6" cy="264.3" r="4" fill="#0E7C74"/>
<circle cx="110.6" cy="297.9" r="4" fill="#A96410"/>
<text x="110.6" y="332" text-anchor="middle" font-family="ui-monospace,monospace" font-size="9" fill="#7A8B8E">2</text>
<line x1="134.1" y1="215.6" x2="134.1" y2="266.8" stroke="#47575A" opacity=".45"/>
<circle cx="134.1" cy="215.6" r="4" fill="#0E7C74"/>
<circle cx="134.1" cy="266.8" r="4" fill="#A96410"/>
<text x="134.1" y="332" text-anchor="middle" font-family="ui-monospace,monospace" font-size="9" fill="#7A8B8E">3</text>
<line x1="157.6" y1="231.1" x2="157.6" y2="162.9" stroke="#47575A" opacity=".45"/>
<circle cx="157.6" cy="231.1" r="4" fill="#0E7C74"/>
<circle cx="157.6" cy="162.9" r="4" fill="#A96410"/>
<text x="157.6" y="332" text-anchor="middle" font-family="ui-monospace,monospace" font-size="9" fill="#7A8B8E">4</text>
<line x1="181.2" y1="178.7" x2="181.2" y2="234.4" stroke="#47575A" opacity=".45"/>
<circle cx="181.2" cy="178.7" r="4" fill="#0E7C74"/>
<circle cx="181.2" cy="234.4" r="4" fill="#A96410"/>
<text x="181.2" y="332" text-anchor="middle" font-family="ui-monospace,monospace" font-size="9" fill="#7A8B8E">5</text>
<line x1="204.7" y1="130.1" x2="204.7" y2="97.8" stroke="#47575A" opacity=".45"/>
<circle cx="204.7" cy="130.1" r="4" fill="#0E7C74"/>
<circle cx="204.7" cy="97.8" r="4" fill="#A96410"/>
<text x="204.7" y="332" text-anchor="middle" font-family="ui-monospace,monospace" font-size="9" fill="#7A8B8E">6</text>
<line x1="228.2" y1="263.6" x2="228.2" y2="209.2" stroke="#47575A" opacity=".45"/>
<circle cx="228.2" cy="263.6" r="4" fill="#0E7C74"/>
<circle cx="228.2" cy="209.2" r="4" fill="#A96410"/>
<text x="228.2" y="332" text-anchor="middle" font-family="ui-monospace,monospace" font-size="9" fill="#7A8B8E">7</text>
<line x1="251.8" y1="243.5" x2="251.8" y2="114.8" stroke="#47575A" opacity=".45"/>
<circle cx="251.8" cy="243.5" r="4" fill="#0E7C74"/>
<circle cx="251.8" cy="114.8" r="4" fill="#A96410"/>
<text x="251.8" y="332" text-anchor="middle" font-family="ui-monospace,monospace" font-size="9" fill="#7A8B8E">8</text>
<line x1="275.3" y1="282.2" x2="275.3" y2="167.4" stroke="#47575A" opacity=".45"/>
<circle cx="275.3" cy="282.2" r="4" fill="#0E7C74"/>
<circle cx="275.3" cy="167.4" r="4" fill="#A96410"/>
<text x="275.3" y="332" text-anchor="middle" font-family="ui-monospace,monospace" font-size="9" fill="#7A8B8E">9</text>
<line x1="298.8" y1="289.9" x2="298.8" y2="296.9" stroke="#47575A" opacity=".45"/>
<circle cx="298.8" cy="289.9" r="4" fill="#0E7C74"/>
<circle cx="298.8" cy="296.9" r="4" fill="#A96410"/>
<text x="298.8" y="332" text-anchor="middle" font-family="ui-monospace,monospace" font-size="9" fill="#7A8B8E">10</text>
<line x1="322.4" y1="285.3" x2="322.4" y2="278.8" stroke="#47575A" opacity=".45"/>
<circle cx="322.4" cy="285.3" r="4" fill="#0E7C74"/>
<circle cx="322.4" cy="278.8" r="4" fill="#A96410"/>
<text x="322.4" y="332" text-anchor="middle" font-family="ui-monospace,monospace" font-size="9" fill="#7A8B8E">11</text>
<line x1="345.9" y1="233.6" x2="345.9" y2="254.7" stroke="#47575A" opacity=".45"/>
<circle cx="345.9" cy="233.6" r="4" fill="#0E7C74"/>
<circle cx="345.9" cy="254.7" r="4" fill="#A96410"/>
<text x="345.9" y="332" text-anchor="middle" font-family="ui-monospace,monospace" font-size="9" fill="#7A8B8E">12</text>
<line x1="369.4" y1="229.4" x2="369.4" y2="177.7" stroke="#47575A" opacity=".45"/>
<circle cx="369.4" cy="229.4" r="4" fill="#0E7C74"/>
<circle cx="369.4" cy="177.7" r="4" fill="#A96410"/>
<text x="369.4" y="332" text-anchor="middle" font-family="ui-monospace,monospace" font-size="9" fill="#7A8B8E">13</text>
<line x1="392.9" y1="262.3" x2="392.9" y2="206.5" stroke="#47575A" opacity=".45"/>
<circle cx="392.9" cy="262.3" r="4" fill="#0E7C74"/>
<circle cx="392.9" cy="206.5" r="4" fill="#A96410"/>
<text x="392.9" y="332" text-anchor="middle" font-family="ui-monospace,monospace" font-size="9" fill="#7A8B8E">14</text>
<line x1="416.5" y1="296.5" x2="416.5" y2="102.9" stroke="#47575A" opacity=".45"/>
<circle cx="416.5" cy="296.5" r="4" fill="#0E7C74"/>
<circle cx="416.5" cy="102.9" r="4" fill="#A96410"/>
<text x="416.5" y="332" text-anchor="middle" font-family="ui-monospace,monospace" font-size="9" fill="#7A8B8E">15</text>
<text x="240" y="348" text-anchor="middle" font-size="10" fill="#7A8B8E">seed</text>
<circle cx="48" cy="366" r="4" fill="#0E7C74"/><text x="58" y="370" font-size="10.5" fill="#131A1B">arm e13 (48 narration states drawn)</text><circle cx="270" cy="366" r="4" fill="#A96410"/><text x="280" y="370" font-size="10.5" fill="#131A1B">arm e14 (128 eval states drawn)</text>
<text x="520" y="66" font-family="ui-monospace,monospace" font-size="10.5" fill="#7A8B8E" letter-spacing=".1em">PAIRED ARM DIFFERENCE, e14 &#8722; e13</text>
<line x1="520" y1="198.0" x2="900" y2="198.0" stroke="#47575A"/>
<text x="512" y="251.3" text-anchor="end" font-family="ui-monospace,monospace" font-size="9.5" fill="#7A8B8E">-0.50</text>
<text x="512" y="226.4" text-anchor="end" font-family="ui-monospace,monospace" font-size="9.5" fill="#7A8B8E">-0.25</text>
<text x="512" y="176.6" text-anchor="end" font-family="ui-monospace,monospace" font-size="9.5" fill="#7A8B8E">+0.25</text>
<text x="512" y="151.7" text-anchor="end" font-family="ui-monospace,monospace" font-size="9.5" fill="#7A8B8E">+0.50</text>
<rect x="536.4" y="164.2" width="12" height="33.8" fill="#A96410" opacity=".8"/>
<text x="542.4" y="332" text-anchor="middle" font-family="ui-monospace,monospace" font-size="9" fill="#7A8B8E">0</text>
<rect x="558.7" y="144.9" width="12" height="53.1" fill="#A96410" opacity=".8"/>
<text x="564.7" y="332" text-anchor="middle" font-family="ui-monospace,monospace" font-size="9" fill="#7A8B8E">1</text>
<rect x="581.1" y="198.0" width="12" height="18.1" fill="#0E7C74" opacity=".8"/>
<text x="587.1" y="332" text-anchor="middle" font-family="ui-monospace,monospace" font-size="9" fill="#7A8B8E">2</text>
<rect x="603.4" y="198.0" width="12" height="27.6" fill="#0E7C74" opacity=".8"/>
<text x="609.4" y="332" text-anchor="middle" font-family="ui-monospace,monospace" font-size="9" fill="#7A8B8E">3</text>
<rect x="625.8" y="161.2" width="12" height="36.8" fill="#A96410" opacity=".8"/>
<text x="631.8" y="332" text-anchor="middle" font-family="ui-monospace,monospace" font-size="9" fill="#7A8B8E">4</text>
<rect x="648.1" y="198.0" width="12" height="30.0" fill="#0E7C74" opacity=".8"/>
<text x="654.1" y="332" text-anchor="middle" font-family="ui-monospace,monospace" font-size="9" fill="#7A8B8E">5</text>
<rect x="670.5" y="180.5" width="12" height="17.5" fill="#A96410" opacity=".8"/>
<text x="676.5" y="332" text-anchor="middle" font-family="ui-monospace,monospace" font-size="9" fill="#7A8B8E">6</text>
<rect x="692.8" y="168.7" width="12" height="29.3" fill="#A96410" opacity=".8"/>
<text x="698.8" y="332" text-anchor="middle" font-family="ui-monospace,monospace" font-size="9" fill="#7A8B8E">7</text>
<rect x="715.2" y="128.6" width="12" height="69.4" fill="#A96410" opacity=".8"/>
<text x="721.2" y="332" text-anchor="middle" font-family="ui-monospace,monospace" font-size="9" fill="#7A8B8E">8</text>
<rect x="737.5" y="136.2" width="12" height="61.8" fill="#A96410" opacity=".8"/>
<text x="743.5" y="332" text-anchor="middle" font-family="ui-monospace,monospace" font-size="9" fill="#7A8B8E">9</text>
<rect x="759.9" y="198.0" width="12" height="3.8" fill="#0E7C74" opacity=".8"/>
<text x="765.9" y="332" text-anchor="middle" font-family="ui-monospace,monospace" font-size="9" fill="#7A8B8E">10</text>
<rect x="782.2" y="194.5" width="12" height="3.5" fill="#A96410" opacity=".8"/>
<text x="788.2" y="332" text-anchor="middle" font-family="ui-monospace,monospace" font-size="9" fill="#7A8B8E">11</text>
<rect x="804.6" y="198.0" width="12" height="11.4" fill="#0E7C74" opacity=".8"/>
<text x="810.6" y="332" text-anchor="middle" font-family="ui-monospace,monospace" font-size="9" fill="#7A8B8E">12</text>
<rect x="826.9" y="170.1" width="12" height="27.9" fill="#A96410" opacity=".8"/>
<text x="832.9" y="332" text-anchor="middle" font-family="ui-monospace,monospace" font-size="9" fill="#7A8B8E">13</text>
<rect x="849.3" y="168.0" width="12" height="30.0" fill="#A96410" opacity=".8"/>
<text x="855.3" y="332" text-anchor="middle" font-family="ui-monospace,monospace" font-size="9" fill="#7A8B8E">14</text>
<rect x="871.6" y="93.7" width="12" height="104.3" fill="#A96410" opacity=".8"/>
<text x="877.6" y="332" text-anchor="middle" font-family="ui-monospace,monospace" font-size="9" fill="#7A8B8E">15</text>
<text x="520" y="366" font-size="10.5" fill="#131A1B">mean +0.236 · sd 0.376 · sign consistency 69%</text>
<text x="520" y="382" font-size="10.5" fill="#9E3535">large per seed, no consistent sign &#8594; a lottery, not a bias</text>
</svg>